<?xml version="1.0" encoding="UTF-8"?>
<svg id="Layer_1" data-name="Layer 1" xmlns="http://www.w3.org/2000/svg" viewBox="0 0 705.77 150.44">
  <path d="M0,85.65c0-27.64,18.82-47.63,45.86-47.63,21.56,0,35.48,11.76,41.16,29.6l-18.23,5.88c-3.14-12.15-10-19.4-23.32-19.4-16.27,0-26.26,12.74-26.26,31.36v.78c0,18.23,9.41,31.36,25.68,31.36,15.09,0,21.56-7.64,24.89-20.38l18.03,5.68c-6.27,18.62-20.19,30.77-42.53,30.77C17.64,133.67,0,113.88,0,85.65Z"/>
  <path d="M98.2,4.31h20.38v20.38h-20.38V4.31ZM98.59,39.59h19.21v92.51h-19.21V39.59Z"/>
  <path d="M137.01,39.59h19.01v17.64c4.9-12.54,14.5-19.6,28.42-19.6,19.99,0,32.14,13.52,32.14,38.02v56.45h-19.01v-55.27c0-14.7-6.27-22.34-18.82-22.34-14.5,0-22.74,11.96-22.74,33.52v44.1h-19.01V39.59Z"/>
  <path d="M239.12,108.98v-53.12h-14.9v-16.27h14.9v-18.23l18.23-11.37v29.6h20.19v16.27h-20.19v50.96c0,5.88,2.35,8.62,8.43,8.62h10.98v16.66h-16.46c-16.66,0-21.17-8.43-21.17-23.13Z"/>
  <path d="M281.85,86.44c0-28.62,19.01-48.41,45.28-48.41s43.51,18.23,43.51,47.24v7.06h-69.78c1.18,15.88,11.17,25.87,27.05,25.87s22.74-7.64,26.26-16.66l16.86,6.47c-6.08,13.92-19.4,25.68-43.12,25.68-28.42,0-46.06-18.82-46.06-47.24ZM326.73,53.51c-14.11,0-24.3,9.41-26.26,24.5h50.57c-.78-16.07-9.6-24.5-24.3-24.5Z"/>
  <path d="M384.75,0h19.21v132.1h-19.21V0Z"/>
  <path d="M418.07,107.8c0-20.78,15.48-25.48,36.06-29.99,15.88-3.33,25.68-4.31,27.44-9.8v-1.18c0-7.64-5.68-13.52-19.99-13.52s-22.15,6.27-22.15,16.86v.98h-19.21c.59-20.58,17.05-33.12,41.55-33.12s37.83,10.58,37.83,33.91v60.17h-18.23v-13.92c-6.47,10.98-18.03,16.27-31.16,16.27-19.8,0-32.14-10.78-32.14-26.66ZM481.57,94.86v-11.56c-5.68,3.92-15.68,5.49-24.7,7.64-10.58,2.74-19.4,6.08-19.4,16.07,0,7.64,5.68,12.94,15.88,12.94,13.72,0,26.66-7.06,28.22-25.09Z"/>
  <path d="M545.88,78.31c0-41.63,28.44-71.54,69.78-71.54,33.43,0,53.66,17.3,62.75,43.98l-34.01,10.56c-4.11-15.25-12.02-24.92-29.03-24.92-20.53,0-33.13,17.01-33.13,41.64v1.17c0,24.34,11.44,41.64,32.25,41.64,19.65,0,26.98-9.68,31.37-26.68l34.01,9.97c-9.68,28.15-30.2,46.33-64.8,46.33-42.81,0-69.2-29.32-69.2-72.13Z"/>
  <path d="M678.36,50.8l27.4,27.4-25.91,25.91-27.4-27.4,25.91-25.91Z"/>
</svg>