<?xml version="1.0" encoding="UTF-8"?>
<svg id="Layer_1" data-name="Layer 1" xmlns="http://www.w3.org/2000/svg" viewBox="0 0 306.53 275.45">
  <path d="M0,137.16C0,57.34,54.53,0,133.79,0,197.87,0,236.66,33.17,254.09,84.32l-65.21,20.24c-7.87-29.23-23.05-47.78-55.65-47.78-39.35,0-63.52,32.6-63.52,79.82v2.25c0,46.66,21.92,79.82,61.83,79.82,37.66,0,51.72-18.55,60.15-51.15l65.21,19.11c-18.55,53.97-57.9,88.82-124.23,88.82C50.59,275.45,0,219.23,0,137.16Z"/>
  <path d="M254,84.41l52.54,52.54-49.67,49.67-52.54-52.54,49.67-49.67Z"/>
</svg>