<?xml version="1.0" encoding="UTF-8"?>
<svg id="Layer_1" data-name="Layer 1" xmlns="http://www.w3.org/2000/svg" viewBox="0 0 311.31 384.3">
  <defs>
    <style>
      .cls-1 {
        fill: #fff;
      }

      .cls-2 {
        fill: #2dd8a5;
      }
    </style>
  </defs>
  <path class="cls-1" d="M3.59,357.17c0-15.36,10.46-26.48,25.5-26.48,11.99,0,19.72,6.54,22.88,16.45l-10.13,3.27c-1.74-6.76-5.56-10.79-12.97-10.79-9.04,0-14.6,7.08-14.6,17.43v.44c0,10.13,5.23,17.43,14.27,17.43,8.39,0,11.99-4.25,13.84-11.33l10.02,3.16c-3.49,10.35-11.22,17.11-23.64,17.11-15.36,0-25.17-11-25.17-26.69Z"/>
  <path class="cls-1" d="M58.18,311.95h11.33v11.33h-11.33v-11.33ZM58.39,331.56h10.68v51.43h-10.68v-51.43Z"/>
  <path class="cls-1" d="M79.75,331.56h10.57v9.81c2.72-6.97,8.06-10.9,15.8-10.9,11.11,0,17.87,7.52,17.87,21.14v31.38h-10.57v-30.73c0-8.17-3.49-12.42-10.46-12.42-8.06,0-12.64,6.65-12.64,18.63v24.52h-10.57v-51.43Z"/>
  <path class="cls-1" d="M136.52,370.13v-29.53h-8.28v-9.04h8.28v-10.13l10.13-6.32v16.45h11.22v9.04h-11.22v28.33c0,3.27,1.31,4.79,4.69,4.79h6.1v9.26h-9.15c-9.26,0-11.77-4.69-11.77-12.86Z"/>
  <path class="cls-1" d="M160.27,357.6c0-15.91,10.57-26.91,25.17-26.91s24.19,10.13,24.19,26.26v3.92h-38.79c.65,8.83,6.21,14.38,15.04,14.38s12.64-4.25,14.6-9.26l9.37,3.6c-3.38,7.74-10.79,14.27-23.97,14.27-15.8,0-25.6-10.46-25.6-26.26ZM185.22,339.3c-7.84,0-13.51,5.23-14.6,13.62h28.11c-.44-8.93-5.34-13.62-13.51-13.62Z"/>
  <path class="cls-1" d="M217.47,309.55h10.68v73.44h-10.68v-73.44Z"/>
  <path class="cls-1" d="M235.99,369.48c0-11.55,8.61-14.16,20.05-16.67,8.83-1.85,14.27-2.4,15.25-5.45v-.65c0-4.25-3.16-7.52-11.11-7.52s-12.31,3.49-12.31,9.37v.54h-10.68c.33-11.44,9.48-18.41,23.1-18.41s21.03,5.88,21.03,18.85v33.45h-10.13v-7.74c-3.6,6.1-10.02,9.04-17.32,9.04-11,0-17.87-5.99-17.87-14.82ZM271.29,362.29v-6.43c-3.16,2.18-8.72,3.05-13.73,4.25-5.88,1.53-10.79,3.38-10.79,8.93,0,4.25,3.16,7.19,8.83,7.19,7.63,0,14.82-3.92,15.69-13.95Z"/>
  <g>
    <path class="cls-2" d="M0,139.3C0,58.23,55.38,0,135.88,0c65.08,0,104.48,33.68,122.17,85.63l-66.23,20.55c-7.99-29.69-23.41-48.53-56.52-48.53-39.96,0-64.51,33.11-64.51,81.07v2.28c0,47.39,22.27,81.07,62.8,81.07,38.25,0,52.52-18.84,61.09-51.95l66.23,19.41c-18.84,54.81-58.8,90.2-126.17,90.2C51.38,279.74,0,222.65,0,139.3Z"/>
    <path class="cls-2" d="M257.96,85.73l53.36,53.36-50.44,50.44-53.36-53.36,50.44-50.44Z"/>
  </g>
</svg>